<svg width="4295" height="500" viewBox="0 0 4295 500" fill="none" xmlns="http://www.w3.org/2000/svg">
<rect width="4295" height="500" fill="#F5F5F5"/>
<rect width="500" height="500" fill="#1A1A1D"/>
<rect x="250.063" y="385" width="10" height="10" transform="rotate(37.32 250.063 385)" fill="#C3073F"/>
<rect width="500" height="500" transform="translate(555)" fill="#1A1A1D"/>
<path d="M805.028 399L663 324.25" stroke="#C3073F" stroke-width="10"/>
<rect width="500" height="500" transform="translate(1095)" fill="#1A1A1D"/>
<path d="M1345.03 399L1203 324.25V174.75" stroke="#C3073F" stroke-width="10"/>
<rect width="500" height="500" transform="translate(1635)" fill="#1A1A1D"/>
<path d="M1885.03 100L1743 174.75V324.25L1885.03 399" stroke="#C3073F" stroke-width="10"/>
<rect width="500" height="500" transform="translate(2175)" fill="#1A1A1D"/>
<path d="M2567.06 174.75L2425.03 100L2283 174.75V324.25L2425.03 399" stroke="#C3073F" stroke-width="10"/>
<rect width="500" height="500" transform="translate(2715)" fill="#1A1A1D"/>
<path d="M3107.06 324.25V174.75L2965.03 100L2823 174.75V324.25L2965.03 399" stroke="#C3073F" stroke-width="10"/>
<rect width="500" height="500" transform="translate(3255)" fill="#1A1A1D"/>
<path d="M3368 177.769L3505.03 105.65L3642.06 177.769V321.231L3505.03 393.35L3368 321.231V177.769Z" stroke="#C3073F" stroke-width="10"/>
<rect width="500" height="500" transform="translate(3795)" fill="#1A1A1D"/>
<path d="M3908 177.769L4045.03 105.65L4182.06 177.769V321.231L4045.03 393.35L3908 321.231V177.769Z" stroke="#C3073F" stroke-width="10"/>
<path d="M4016.34 296V205.091H4047.05C4054.18 205.091 4060.01 206.378 4064.54 208.953C4069.1 211.498 4072.47 214.945 4074.66 219.295C4076.85 223.646 4077.95 228.499 4077.95 233.855C4077.95 239.211 4076.85 244.079 4074.66 248.459C4072.5 252.839 4069.16 256.331 4064.63 258.935C4060.1 261.51 4054.3 262.797 4047.23 262.797H4025.21V253.031H4046.88C4051.76 253.031 4055.68 252.188 4058.64 250.501C4061.6 248.814 4063.74 246.536 4065.08 243.665C4066.44 240.765 4067.12 237.495 4067.12 233.855C4067.12 230.215 4066.44 226.96 4065.08 224.089C4063.74 221.219 4061.58 218.97 4058.59 217.342C4055.61 215.685 4051.64 214.857 4046.7 214.857H4027.34V296H4016.34Z" fill="#F60950"/>
</svg>
