<svg width="432" height="389" viewBox="0 0 432 389" fill="none" xmlns="http://www.w3.org/2000/svg">
<g id="navbar">
<g id="bar4" filter="url(#filter0_d_5_2)">
<path id="Vector 1" d="M380.843 245V190L230.843 212.5L80.8431 235V289L230.843 267L380.843 245Z" fill="#D9D9D9"/>
<path id="Vector 5" d="M51.9937 200L80.8429 234.626L381.042 189.55L355.178 158.322L51.9937 200Z" fill="#6D6C6C" stroke="#6D6C6C"/>
<path id="Vector 6" d="M50.8431 225.5L50.8431 199.5L65.8431 217.5L80.8431 235.5L80.8431 262.25L80.8431 289L65.8431 271L50.8431 253L50.8431 225.5Z" fill="#565555"/>
</g>
<g id="bar3">
<path id="Vector 1_2" d="M380.843 194V139L230.843 161.5L80.8431 184V238L230.843 216L380.843 194Z" fill="#D9D9D9"/>
<path id="Vector 5_2" d="M51.9937 149L80.8429 183.626L381.042 138.55L355.178 107.322L51.9937 149Z" fill="#6D6C6C" stroke="#6D6C6C"/>
<path id="Vector 6_2" d="M50.8431 174.5L50.8431 148.5L65.8431 166.5L80.8431 184.5L80.8431 211.25L80.8431 238L65.8431 220L50.8431 202L50.8431 174.5Z" fill="#565555"/>
</g>
<g id="bar2">
<path id="Vector 1_3" d="M380.843 141V86L230.843 108.5L80.8431 131V185L230.843 163L380.843 141Z" fill="#D9D9D9"/>
<path id="Vector 5_3" d="M51.9937 95.9996L80.8429 130.626L381.042 85.5502L355.178 54.3221L51.9937 95.9996Z" fill="#6D6C6C" stroke="#6D6C6C"/>
<path id="Vector 6_3" d="M50.8431 121.5L50.8431 95.5L65.8431 113.5L80.8431 131.5L80.8431 158.25L80.8431 185L65.8431 167L50.8431 149L50.8431 121.5Z" fill="#565555"/>
</g>
<g id="bar1">
<path id="Vector 1_4" d="M380.843 88V33L230.843 55.5L80.8431 78V132L230.843 110L380.843 88Z" fill="#D9D9D9"/>
<path id="Vector 5_4" d="M51.9937 42.9996L80.8429 77.6258L381.042 32.5502L355.178 1.32208L51.9937 42.9996Z" fill="#6D6C6C" stroke="#6D6C6C"/>
<path id="Vector 6_4" d="M50.8431 68.5L50.8431 42.5L65.8431 60.5L80.8431 78.5L80.8431 105.25L80.8431 132L65.8431 114L50.8431 96L50.8431 68.5Z" fill="#565555"/>
</g>
</g>
<defs>
<filter id="filter0_d_5_2" x="0.84314" y="157.789" width="431.149" height="231.211" filterUnits="userSpaceOnUse" color-interpolation-filters="sRGB">
<feFlood flood-opacity="0" result="BackgroundImageFix"/>
<feColorMatrix in="SourceAlpha" type="matrix" values="0 0 0 0 0 0 0 0 0 0 0 0 0 0 0 0 0 0 127 0" result="hardAlpha"/>
<feOffset dy="50"/>
<feGaussianBlur stdDeviation="25"/>
<feComposite in2="hardAlpha" operator="out"/>
<feColorMatrix type="matrix" values="0 0 0 0 0 0 0 0 0 0 0 0 0 0 0 0 0 0 0.25 0"/>
<feBlend mode="normal" in2="BackgroundImageFix" result="effect1_dropShadow_5_2"/>
<feBlend mode="normal" in="SourceGraphic" in2="effect1_dropShadow_5_2" result="shape"/>
</filter>
</defs>
</svg>
