<svg width="335" height="289" viewBox="0 0 335 289" fill="none" xmlns="http://www.w3.org/2000/svg">
<g class="nav1">
  <path d="M333.843 245V190L183.843 212.5L33.8431 235V289L183.843 267L333.843 245Z" fill="#D9D9D9"/>
  <path d="M4.99367 200L33.8429 234.626L334.042 189.55L308.178 158.322L4.99367 200Z" fill="#6D6C6C" stroke="#6D6C6C"/>
  <path d="M3.84314 225.5L3.84314 199.5L18.8431 217.5L33.8431 235.5L33.8431 262.25L33.8431 289L18.8431 271L3.84314 253L3.84314 225.5Z" fill="#565555"/>
</g>
<g class="nav2">
  <path d="M333.843 194V139L183.843 161.5L33.8431 184V238L183.843 216L333.843 194Z" fill="#D9D9D9"/>
  <path d="M4.99367 149L33.8429 183.626L334.042 138.55L308.178 107.322L4.99367 149Z" fill="#6D6C6C" stroke="#6D6C6C"/>
  <path d="M3.84314 174.5L3.84314 148.5L18.8431 166.5L33.8431 184.5L33.8431 211.25L33.8431 238L18.8431 220L3.84314 202L3.84314 174.5Z" fill="#565555"/>
</g>
<g class="nav3">
  <path d="M333.843 141V86L183.843 108.5L33.8431 131V185L183.843 163L333.843 141Z" fill="#D9D9D9"/>
  <path d="M4.99367 95.9996L33.8429 130.626L334.042 85.5502L308.178 54.3221L4.99367 95.9996Z" fill="#6D6C6C" stroke="#6D6C6C"/>
  <path d="M3.84314 121.5L3.84314 95.5L18.8431 113.5L33.8431 131.5L33.8431 158.25L33.8431 185L18.8431 167L3.84314 149L3.84314 121.5Z" fill="#565555"/>
</g>
<g class="nav4">
  <path d="M333.843 88V33L183.843 55.5L33.8431 78V132L183.843 110L333.843 88Z" fill="#D9D9D9"/>
  <path d="M4.99367 42.9996L33.8429 77.6258L334.042 32.5502L308.178 1.32208L4.99367 42.9996Z" fill="#6D6C6C" stroke="#6D6C6C"/>
  <path d="M3.84314 68.5L3.84314 42.5L18.8431 60.5L33.8431 78.5L33.8431 105.25L33.8431 132L18.8431 114L3.84314 96L3.84314 68.5Z" fill="#565555"/>
</g>
</svg>
